# xmcd
#
# Track frame offsets:
#	150
#	12850
#	27057
#	40860
#	52353
#	67024
#	79800
#	93043
#	101856
#	118059
#	133684
#
# Disc length: 1956 seconds
#
# Revision: 0
# Processed by: cddbd v1.5.1PL2 Copyright (c) Steve Scherf et al.
# Submitted via: dBpowerAMP V4.0
#
DISCID=9207a20b
DTITLE=Trey Young - Wine Me Up
DYEAR=2005
DGENRE=Country
TTITLE0=Wine Me Up
TTITLE1=Love You Till Forever
TTITLE2=If Wishin Made It So
TTITLE3=Three Days
TTITLE4=Hello Walls
TTITLE5=Lovers Hall Of Shame
TTITLE6=Chances Are
TTITLE7=Wonderful World Of Women
TTITLE8=I Dont Want To Leave Till I Know Its Over
TTITLE9=They Don't Make Bars Like They Used To
TTITLE10=You'll Never Know
EXTD=
EXTT0=
EXTT1=
EXTT2=
EXTT3=
EXTT4=
EXTT5=
EXTT6=
EXTT7=
EXTT8=
EXTT9=
EXTT10=
PLAYORDER=
